<svg width="120" height="45" viewBox="0 0 120 45" fill="none" xmlns="http://www.w3.org/2000/svg">
<path d="M14.7896 33.75H7.61655C7.47323 33.75 7.33133 33.7789 7.19908 33.8351C7.06683 33.8912 6.94684 33.9736 6.84609 34.0772C6.74533 34.1809 6.6658 34.3039 6.61211 34.4391C6.55841 34.5743 6.53162 34.719 6.53328 34.8648V37.0688C6.53328 37.2135 6.5613 37.3568 6.61573 37.4905C6.67017 37.6242 6.74997 37.7457 6.85056 37.848C6.95115 37.9504 7.07057 38.0315 7.202 38.0869C7.33343 38.1423 7.47429 38.1708 7.61655 38.1708H12.6356C12.9175 38.1649 13.1861 38.0474 13.3842 37.8432L15.5508 35.6391C15.7068 35.4866 15.8141 35.2899 15.8588 35.0745C15.9036 34.8591 15.8836 34.635 15.8015 34.4313C15.7194 34.2276 15.579 34.0537 15.3986 33.9322C15.2181 33.8107 15.0059 33.7472 14.7896 33.75Z" fill="#0052CC"/>
<path d="M20.7327 27.1038H1.0289C0.756017 27.1038 0.494313 27.214 0.301357 27.4103C0.108401 27.6066 0 27.8729 0 28.1505L0 43.7022C0.00110156 43.993 0.115145 44.2715 0.317275 44.4772C0.519405 44.6828 0.793235 44.7988 1.07909 44.7999H3.34601C3.63259 44.7999 3.90749 44.6844 4.11052 44.4787C4.31356 44.2729 4.42817 43.9937 4.42928 43.7022V32.6054C4.42873 32.4609 4.45623 32.3176 4.51022 32.184C4.5642 32.0503 4.6436 31.9288 4.74386 31.8264C4.84411 31.724 4.96326 31.6427 5.09445 31.5873C5.22565 31.5319 5.36631 31.5033 5.50837 31.5033H20.7327C20.8746 31.5039 21.0151 31.4759 21.1463 31.4209C21.2775 31.366 21.3967 31.2851 21.497 31.1831C21.5973 31.081 21.6768 30.9598 21.7308 30.8263C21.7848 30.6929 21.8124 30.5499 21.8118 30.4056V28.2015C21.8124 28.0572 21.7848 27.9142 21.7308 27.7808C21.6768 27.6473 21.5973 27.5261 21.497 27.424C21.3967 27.322 21.2775 27.2412 21.1463 27.1862C21.0151 27.1312 20.8746 27.1032 20.7327 27.1038Z" fill="#0052CC"/>
<path d="M44.7738 27.1038H25.024C24.7511 27.1038 24.4894 27.214 24.2965 27.4103C24.1035 27.6066 23.9951 27.8729 23.9951 28.1505V43.7532C23.9951 44.0308 24.1035 44.2971 24.2965 44.4934C24.4894 44.6897 24.7511 44.7999 25.024 44.7999H27.3788C27.6517 44.7999 27.9134 44.6897 28.1063 44.4934C28.2993 44.2971 28.4077 44.0308 28.4077 43.7532V32.5543C28.4088 32.2759 28.518 32.0092 28.7115 31.8124C28.905 31.6155 29.1671 31.5045 29.4407 31.5033H34.5769C34.7804 31.5044 34.9791 31.5667 35.148 31.6822C35.3169 31.7978 35.4484 31.9615 35.5262 32.1529C35.6039 32.3442 35.6244 32.5547 35.5849 32.7578C35.5455 32.9609 35.448 33.1477 35.3046 33.2947L35.1582 33.4436C34.9644 33.6387 34.7031 33.7487 34.4305 33.7499H31.5571C31.2849 33.7511 31.0243 33.8618 30.8323 34.058C30.6402 34.2542 30.5324 34.5198 30.5324 34.7966V37.1028C30.5324 37.3808 30.6407 37.6475 30.8335 37.8444C31.0263 38.0414 31.288 38.1526 31.5613 38.1538H35.9697C36.2443 38.1525 36.5074 38.0408 36.7016 37.8432L45.4849 28.8866C45.6265 28.741 45.723 28.5564 45.7625 28.3555C45.802 28.1547 45.7827 27.9465 45.707 27.7567C45.6313 27.567 45.5026 27.4039 45.3367 27.2879C45.1708 27.1718 44.9751 27.1078 44.7738 27.1038Z" fill="#0052CC"/>
<path d="M68.7692 27.1038H49.0194C48.7461 27.1038 48.484 27.2139 48.2904 27.4101C48.0968 27.6063 47.9874 27.8725 47.9863 28.1505V30.4567C47.9874 30.7347 48.0968 31.0009 48.2904 31.1971C48.484 31.3932 48.7461 31.5034 49.0194 31.5034H66.5023C66.7751 31.503 67.0368 31.3929 67.2301 31.197L69.497 28.9079C69.6447 28.7616 69.746 28.5737 69.788 28.3684C69.8299 28.1631 69.8105 27.9497 69.7322 27.7557C69.6539 27.5617 69.5204 27.396 69.3488 27.2798C69.1772 27.1636 68.9754 27.1023 68.7692 27.1038Z" fill="#0052CC"/>
<path d="M70.9357 40.3963H68.6646C68.0964 40.3963 67.6357 40.8649 67.6357 41.443V43.7534C67.6357 44.3315 68.0964 44.8001 68.6646 44.8001H70.9357C71.504 44.8001 71.9646 44.3315 71.9646 43.7534V41.443C71.9646 40.8649 71.504 40.3963 70.9357 40.3963Z" fill="#0052CC"/>
<path d="M94.2154 31.1375L91.9485 33.4436C91.7559 33.6403 91.6477 33.9064 91.6473 34.184V34.9499C91.6473 35.2275 91.5389 35.4937 91.346 35.69C91.153 35.8863 90.8913 35.9966 90.6184 35.9966H89.8656C89.5928 35.9969 89.3311 36.1071 89.1378 36.3029L86.8709 38.6091C86.7269 38.7555 86.6289 38.942 86.5891 39.1451C86.5494 39.3482 86.5698 39.5588 86.6477 39.7501C86.7256 39.9414 86.8575 40.1049 87.0268 40.2199C87.1961 40.3349 87.3951 40.3962 87.5987 40.3962H90.6184C90.8917 40.3973 91.1534 40.5085 91.3462 40.7055C91.5391 40.9025 91.6473 41.1691 91.6473 41.4471V43.7533C91.6473 44.0309 91.7557 44.2971 91.9487 44.4934C92.1417 44.6897 92.4034 44.8 92.6762 44.8H94.9432C95.2164 44.8 95.4786 44.6899 95.6722 44.4937C95.8658 44.2975 95.9751 44.0313 95.9762 43.7533V31.8863C95.9768 31.6786 95.9168 31.4753 95.8039 31.3022C95.6909 31.1291 95.5301 30.9939 95.3416 30.9137C95.1532 30.8336 94.9456 30.8121 94.7452 30.8519C94.5447 30.8917 94.3604 30.9911 94.2154 31.1375Z" fill="#0052CC"/>
<path d="M93.5753 27.1038H89.9532C89.6804 27.1041 89.4188 27.2143 89.2255 27.4101L73.8924 43.0129C73.7484 43.1593 73.6504 43.3458 73.6106 43.5489C73.5709 43.752 73.5913 43.9626 73.6692 44.1539C73.7471 44.3452 73.879 44.5087 74.0483 44.6237C74.2176 44.7387 74.4166 44.8001 74.6202 44.8H78.2422C78.515 44.7996 78.7767 44.6895 78.97 44.4936L94.3031 28.9079C94.4529 28.7625 94.5562 28.5745 94.5993 28.3684C94.6425 28.1624 94.6235 27.9479 94.5449 27.753C94.4663 27.5581 94.3317 27.3918 94.1587 27.276C93.9857 27.1602 93.7824 27.1002 93.5753 27.1038Z" fill="#0052CC"/>
<path d="M101.472 27.1038H99.2008C98.6325 27.1038 98.1719 27.5724 98.1719 28.1505V43.7532C98.1719 44.3313 98.6325 44.7999 99.2008 44.7999H101.472C102.04 44.7999 102.501 44.3313 102.501 43.7532V28.1505C102.501 27.5724 102.04 27.1038 101.472 27.1038Z" fill="#0052CC"/>
<path d="M60.1066 33.7415H57.8355C57.2673 33.7415 56.8066 34.2101 56.8066 34.7882V43.7533C56.8066 44.3314 57.2673 44.8 57.8355 44.8H60.1066C60.6749 44.8 61.1355 44.3314 61.1355 43.7533V34.7882C61.1355 34.2101 60.6749 33.7415 60.1066 33.7415Z" fill="#0052CC"/>
<path d="M115.647 0.399994C114.49 0.399994 113.38 0.867554 112.562 1.69982C111.744 2.53208 111.284 3.66087 111.284 4.83787C111.284 5.46946 111.418 6.09364 111.678 6.66748L103.63 13.6881C102.692 12.9756 101.552 12.5906 100.381 12.5903H100.305L99.6068 9.67145C100.358 9.18314 100.914 8.43945 101.177 7.57281C101.44 6.70616 101.392 5.77281 101.041 4.93894C100.691 4.10507 100.061 3.4248 99.2632 3.01927C98.4658 2.61374 97.5528 2.50927 96.6868 2.72445C95.8208 2.93964 95.058 3.46051 94.5341 4.19433C94.0103 4.92815 93.7595 5.82729 93.8263 6.73164C93.8932 7.63599 94.2733 8.48686 94.8991 9.13274C95.5249 9.77862 96.3558 10.1776 97.2437 10.2586L97.938 13.1647C97.0885 13.5967 96.3651 14.2474 95.8397 15.0521C95.3143 15.8568 95.0053 16.7875 94.9433 17.7515L90.146 18.5046C89.7019 17.5349 88.9287 16.7608 87.9685 16.3245C87.0083 15.8882 85.9256 15.8191 84.9193 16.1299C83.913 16.4407 83.0508 17.1105 82.4911 18.0163C81.9314 18.922 81.7118 20.0027 81.8727 21.06C82.0335 22.1172 82.564 23.0799 83.3667 23.771C84.1694 24.4622 85.1903 24.8355 86.2418 24.8223C87.2934 24.8091 88.3049 24.4102 89.0905 23.699C89.8761 22.9879 90.3831 22.0122 90.5182 20.9512L95.3114 20.1981C95.6036 20.9544 96.0561 21.6358 96.6366 22.194C97.2171 22.7522 97.9114 23.1734 98.6701 23.4277C99.4288 23.682 100.233 23.7631 101.026 23.6653C101.819 23.5675 102.581 23.2931 103.258 22.8617L107.441 27.1591C106.935 28.0933 106.778 29.1817 106.997 30.2244C107.217 31.2671 107.799 32.1941 108.637 32.8352C109.475 33.4763 110.512 33.7884 111.557 33.7142C112.603 33.6401 113.588 33.1846 114.33 32.4314C115.072 31.6783 115.522 30.678 115.597 29.6144C115.673 28.5508 115.369 27.4951 114.74 26.6414C114.112 25.7877 113.202 25.1931 112.178 24.967C111.154 24.7408 110.083 24.8983 109.164 25.4104L104.981 21.1172C105.492 20.2959 105.781 19.3522 105.819 18.3811C105.857 17.4101 105.643 16.4459 105.199 15.5858L113.263 8.54815C113.831 8.92484 114.478 9.16142 115.152 9.23906C115.826 9.31671 116.508 9.23328 117.145 8.99541C117.781 8.75754 118.355 8.3718 118.819 7.86887C119.283 7.36595 119.626 6.75972 119.819 6.09844C120.013 5.43715 120.052 4.73905 119.933 4.05968C119.815 3.38032 119.542 2.73843 119.137 2.18511C118.732 1.63178 118.206 1.18229 117.6 0.872386C116.994 0.562484 116.325 0.40073 115.647 0.399994V0.399994Z" fill="#0052CC"/>
</svg>
